<?xml version="1.0" standalone="no"?>
<!DOCTYPE svg PUBLIC "-//W3C//DTD SVG 20010904//EN"
 "http://www.w3.org/TR/2001/REC-SVG-20010904/DTD/svg10.dtd">
<svg version="1.0" xmlns="http://www.w3.org/2000/svg"
 width="3016.000000pt" height="3016.000000pt" viewBox="0 0 3016.000000 3016.000000"
 preserveAspectRatio="xMidYMid meet">
<metadata>
Created by potrace 1.11, written by Peter Selinger 2001-2013
</metadata>
<g transform="translate(0.000000,3016.000000) scale(0.100000,-0.100000)"
fill="#000000" stroke="none">
<path d="M12985 24208 c-576 -743 -839 -1095 -1282 -1714 -936 -1307 -1670
-2450 -2225 -3464 -138 -251 -384 -744 -488 -975 l-62 -140 -1854 -1199
c-1020 -660 -1851 -1203 -1847 -1207 5 -4 463 -274 1018 -600 556 -326 1014
-595 1018 -599 4 -4 -537 -611 -1203 -1349 -666 -739 -1209 -1346 -1205 -1349
3 -3 685 -160 1515 -347 830 -188 1512 -344 1516 -347 3 -4 -459 -684 -1026
-1513 -567 -829 -1029 -1509 -1027 -1511 2 -3 802 63 1778 146 976 83 1988
168 2249 190 261 22 492 42 513 45 34 5 38 3 33 -12 -3 -10 -199 -632 -436
-1382 -237 -750 -429 -1365 -428 -1366 2 -1 716 277 1588 617 872 340 1891
738 2265 884 l680 265 1138 285 1138 284 2629 -440 c1446 -242 2636 -440 2644
-440 8 0 577 407 1263 905 l1248 904 592 1088 592 1088 -287 140 c-158 77
-1309 640 -2559 1250 l-2272 1110 -751 1585 -751 1585 -97 71 c-53 39 -387
286 -742 549 -355 263 -809 600 -1010 748 -201 149 -368 273 -372 276 -4 3
228 1138 517 2521 288 1383 522 2516 521 2517 -1 1 -166 -114 -367 -255 -2020
-1430 -2861 -2023 -2872 -2028 -15 -5 -4 -45 -634 2453 -164 651 -300 1183
-303 1183 -3 -1 -162 -204 -355 -452z m256 -3437 c461 -1821 831 -3243 846
-3248 12 -4 980 244 999 255 7 5 -64 295 -213 867 -123 473 -247 953 -277
1067 l-53 207 91 64 c50 36 363 257 695 491 332 235 605 425 608 423 2 -2
-138 -688 -312 -1523 -174 -836 -317 -1525 -318 -1532 -1 -7 574 -440 1277
-961 l1279 -949 769 -1623 c423 -893 774 -1629 781 -1636 10 -10 864 -428
3800 -1861 356 -174 647 -320 647 -326 0 -5 -120 -231 -267 -501 l-268 -492
-964 -699 c-530 -384 -971 -703 -980 -707 -15 -7 -1625 258 -4417 728 -342 58
-633 105 -648 105 -14 0 -589 -140 -1278 -311 l-1253 -311 -1283 -500 c-706
-275 -1285 -498 -1288 -495 -3 2 148 488 334 1078 187 591 339 1075 338 1076
-1 1 -872 -72 -1936 -163 -1064 -90 -1949 -163 -1967 -162 l-32 3 845 1234
c464 679 843 1235 842 1236 -2 1 -277 64 -613 140 -1304 293 -2187 494 -2190
497 -2 2 263 298 589 659 325 360 794 881 1043 1156 l452 502 -844 496 c-465
273 -845 500 -845 503 1 4 575 378 1276 832 l1276 825 63 155 c249 615 681
1424 1230 2305 485 777 966 1487 1715 2529 35 49 66 83 68 76 3 -7 175 -686
383 -1509z"/>
</g>
</svg>
